<svg id="图层_1" data-name="图层 1" xmlns="http://www.w3.org/2000/svg" viewBox="0 0 358.76 168.29"><defs><style>.cls-1{fill:#53b98f;}.cls-2{fill:#56b88d;}.cls-3{fill:#fff;}</style></defs><title>1</title><g id="V右"><line class="cls-1" x1="105.49" y1="140.28" x2="153.78" y2="75.67"/><path class="cls-1" d="M126.09,284.15a26.66,26.66,0,0,1-16.58-5.81,28.57,28.57,0,0,1-5-39.28l48.3-64.61A26.7,26.7,0,0,1,191,169.33a28.55,28.55,0,0,1,5,39.28l-48.3,64.6A26.91,26.91,0,0,1,126.09,284.15Z" transform="translate(-20.62 -115.85)"/></g><g id="V左"><line class="cls-1" x1="104.66" y1="140.28" x2="27.22" y2="36.69"/><path class="cls-1" d="M125.3,284.15a26.91,26.91,0,0,1-21.59-10.94L26.27,169.62a28.55,28.55,0,0,1,5-39.28,26.71,26.71,0,0,1,38.17,5.12l77.44,103.6a28.57,28.57,0,0,1-5,39.28A26.66,26.66,0,0,1,125.3,284.15Z" transform="translate(-20.62 -115.85)"/></g><ellipse class="cls-2" cx="189.18" cy="28.32" rx="27.22" ry="28.01"/><path class="cls-2" d="M209.8,172.5c-15.17,0-27.52-12.71-27.52-28.32s12.35-28.33,27.52-28.33,27.52,12.71,27.52,28.33S225,172.5,209.8,172.5Zm0-56c-14.84,0-26.92,12.42-26.92,27.7s12.08,27.7,26.92,27.7,26.92-12.43,26.92-27.7S224.64,116.48,209.8,116.48Z" transform="translate(-20.62 -115.85)"/><path class="cls-1" d="M162.76,166.2a83.68,83.68,0,0,1-25.34,3.91A84.8,84.8,0,0,1,72.82,140l-.44,10.11L125.07,228Z" transform="translate(-20.62 -115.85)"/><ellipse class="cls-3" cx="105.55" cy="93.98" rx="10.76" ry="11.08"/><g id="横1"><line class="cls-3" x1="341.67" y1="17.98" x2="261.92" y2="17.98"/><path class="cls-2" d="M362.29,151.42H282.54a17.6,17.6,0,0,1,0-35.18h79.75a17.6,17.6,0,0,1,0,35.18Z" transform="translate(-20.62 -115.85)"/></g><g id="横3"><line class="cls-3" x1="242.73" y1="150.28" x2="162.98" y2="150.28"/><path class="cls-2" d="M263.35,283.72H183.6a17.6,17.6,0,0,1,0-35.18h79.75a17.6,17.6,0,0,1,0,35.18Z" transform="translate(-20.62 -115.85)"/></g><g id="横2"><path class="cls-2" d="M313.27,217.57H233.53a17.6,17.6,0,0,1,0-35.18h79.74a17.6,17.6,0,0,1,0,35.18Z" transform="translate(-20.62 -115.85)"/></g></svg>