<?xml version="1.0" encoding="utf-8"?>
<!-- Generator: Adobe Illustrator 23.0.3, SVG Export Plug-In . SVG Version: 6.00 Build 0)  -->
<svg version="1.1" id="图层_1" xmlns="http://www.w3.org/2000/svg" xmlns:xlink="http://www.w3.org/1999/xlink" x="0px" y="0px"
	 viewBox="0 0 400 200" style="enable-background:new 0 0 400 200;" xml:space="preserve">
<style type="text/css">
	.st0{fill:#53B98F;}
	.st1{fill:#56B88D;}
	.st2{fill:#FFFFFF;}
</style>
<g>
	<g>
		<g id="V右_2_">
			<g>
				<line class="st0" x1="126.11" y1="156.13" x2="174.4" y2="91.53"/>
			</g>
			<g>
				<path class="st0" d="M126.09,184.15c-5.79,0-11.63-1.89-16.58-5.81c-11.92-9.43-14.14-27.02-4.98-39.28l48.3-64.61
					C162,62.19,179.08,59.89,191,69.33c11.92,9.43,14.14,27.02,4.98,39.28l-48.3,64.61C142.32,180.38,134.25,184.15,126.09,184.15z"
					/>
			</g>
		</g>
		<g id="V左_2_">
			<g>
				<line class="st0" x1="125.28" y1="156.13" x2="47.84" y2="52.54"/>
			</g>
			<g>
				<path class="st0" d="M125.3,184.15c-8.16,0-16.23-3.76-21.59-10.93L26.27,69.62c-9.17-12.26-6.94-29.85,4.98-39.28
					c11.92-9.43,29.01-7.14,38.17,5.12l77.44,103.59c9.17,12.26,6.94,29.85-4.98,39.28C136.93,182.25,131.09,184.15,125.3,184.15z"
					/>
			</g>
		</g>
		<g>
			<g>
				<ellipse class="st1" cx="209.8" cy="44.18" rx="27.22" ry="28.01"/>
			</g>
			<g>
				<path class="st1" d="M209.8,72.5c-15.18,0-27.52-12.71-27.52-28.32c0-15.62,12.35-28.32,27.52-28.32s27.52,12.71,27.52,28.32
					C237.32,59.79,224.98,72.5,209.8,72.5z M209.8,16.48c-14.84,0-26.92,12.43-26.92,27.7s12.08,27.7,26.92,27.7
					c14.84,0,26.92-12.43,26.92-27.7S224.64,16.48,209.8,16.48z"/>
			</g>
		</g>
		<g>
			<g>
				<path class="st0" d="M162.76,66.2c-8.01,2.54-16.52,3.9-25.34,3.9c-25.74,0-48.84-11.64-64.6-30.09l-0.45,10.12l52.7,77.82
					L162.76,66.2z"/>
			</g>
		</g>
		<g>
			<ellipse class="st2" cx="126.17" cy="109.83" rx="10.76" ry="11.08"/>
		</g>
	</g>
	<g>
		<g id="横1">
			<line class="st2" x1="362.29" y1="33.83" x2="282.54" y2="33.83"/>
			<path class="st1" d="M362.29,51.42h-79.75c-9.44,0-17.09-7.87-17.09-17.59s7.65-17.59,17.09-17.59h79.75
				c9.44,0,17.09,7.87,17.09,17.59S371.73,51.42,362.29,51.42z"/>
		</g>
		<g id="横3">
			<line class="st2" x1="263.35" y1="166.13" x2="183.6" y2="166.13"/>
			<path class="st1" d="M263.35,183.72H183.6c-9.44,0-17.09-7.87-17.09-17.59c0-9.71,7.65-17.59,17.09-17.59h79.75
				c9.44,0,17.09,7.87,17.09,17.59C280.44,175.84,272.79,183.72,263.35,183.72z"/>
		</g>
		<g id="横2">
			<path class="st1" d="M313.27,117.57h-79.75c-9.44,0-17.09-7.87-17.09-17.59c0-9.71,7.65-17.59,17.09-17.59h79.75
				c9.44,0,17.09,7.87,17.09,17.59C330.37,109.69,322.71,117.57,313.27,117.57z"/>
		</g>
	</g>
</g>
</svg>
